<?xml version="1.0" encoding="utf-8"?>
<!-- Generator: Adobe Illustrator 23.1.1, SVG Export Plug-In . SVG Version: 6.00 Build 0)  -->
<svg version="1.1" id="Capa_1" xmlns="http://www.w3.org/2000/svg" xmlns:xlink="http://www.w3.org/1999/xlink" x="0px" y="0px"
	 viewBox="0 0 125 125" style="enable-background:new 0 0 125 125;" xml:space="preserve">
<style type="text/css">
	.st0{fill:none;stroke:#F2EBEB;stroke-width:2;stroke-linecap:round;stroke-linejoin:round;}
	.st1{fill:url(#SVGID_1_);}
	.st2{fill:none;stroke:#F2EBEB;stroke-width:3;}
</style>
<path class="st0" d="M96.9,60.5c0.5,7.6-1.4,15.3-5.6,21.7C87.1,88.6,80.9,93.4,73.7,96c-7.2,2.6-15.1,2.7-22.4,0.3
	c-7.3-2.3-13.6-7-18-13.3c-4.4-6.3-6.6-13.8-6.2-21.5c0.3-7.7,3.2-15,8.1-20.9s11.6-10,19.1-11.7c7.5-1.7,15.3-0.9,22.3,2.2"/>
<linearGradient id="SVGID_1_" gradientUnits="userSpaceOnUse" x1="74.9935" y1="74.3297" x2="35.9935" y2="52.3297" gradientTransform="matrix(1 0 0 -1 0 126)">
	<stop  offset="0.1171" style="stop-color:#1A7EF6;stop-opacity:0"/>
	<stop  offset="1" style="stop-color:#1A7EF6"/>
</linearGradient>
<path class="st1" d="M81,62.8c1.3,0.8,1.3,2.7,0,3.5l-27.8,16c-1.3,0.8-3-0.2-3-1.7v-32c0-1.5,1.7-2.5,3-1.7L81,62.8z"/>
<path class="st2" d="M80.2,64.9L52.5,81c-0.3,0.2-0.8,0-0.8-0.4v-32c0-0.4,0.4-0.6,0.8-0.4l27.8,16C80.6,64.3,80.6,64.7,80.2,64.9z"
	/>
</svg>
